<svg width="29" height="31" viewBox="0 0 29 31" fill="none" xmlns="http://www.w3.org/2000/svg">
<path d="M27.0609 5.99909C28.3546 7.53777 29 9.33291 29 11.3845C29 18.8201 24.7323 20.9999 20.7219 21.641C21.2394 22.5385 21.3687 23.5643 21.3687 24.5901V29.8459C21.3687 30.487 20.9806 30.8717 20.4632 30.8717C20.3267 30.8736 20.1913 30.8483 20.0649 30.7975C19.9384 30.7466 19.8236 30.6711 19.7271 30.5755C19.6306 30.4798 19.5544 30.366 19.5031 30.2407C19.4518 30.1154 19.4263 29.9811 19.4282 29.8459V24.5901C19.4964 24.0528 19.4384 23.5071 19.2589 22.9955C19.0794 22.484 18.7832 22.0204 18.3933 21.641L19.0401 19.9741C23.0505 19.4612 27.1903 18.1789 27.1903 11.2563C27.1903 9.58935 26.5434 8.05067 25.3791 6.76843L25.1204 5.74405C25.6124 4.51543 25.6576 3.15541 25.2483 1.89734C24.6029 2.02415 23.3093 2.28201 21.1114 3.82069L20.3338 3.94751C17.2784 3.17854 14.0776 3.17854 11.0222 3.94751L10.2446 3.82069C7.9188 2.41023 6.62513 2.02556 5.97687 2.02556C5.58876 3.3078 5.58876 4.71685 6.10481 5.87227L5.8475 6.89665C4.55382 8.17889 3.90699 9.8458 3.90699 11.3845C3.90699 18.1789 7.78801 19.5894 12.0557 20.1023L12.5732 21.7692C11.797 22.5385 11.4089 23.5643 11.5382 24.5901V29.9741C11.5402 30.1093 11.5147 30.2436 11.4634 30.3689C11.412 30.4942 11.3359 30.608 11.2394 30.7037C11.1429 30.7993 11.028 30.8748 10.9016 30.9257C10.7752 30.9766 10.6397 31.0018 10.5033 30.9999C10.3669 31.0018 10.2314 30.9766 10.105 30.9257C9.97857 30.8748 9.86371 30.7993 9.76723 30.7037C9.67074 30.608 9.59458 30.4942 9.54325 30.3689C9.49191 30.2436 9.46645 30.1093 9.46836 29.9741V27.0264C5.20066 27.9239 3.51889 25.7441 2.22521 24.0786C1.57837 23.3093 1.06091 22.6682 0.414068 22.54C0.286122 22.4117 -0.103402 21.8988 0.0259658 21.3859C0.155333 20.873 0.672803 20.4884 1.19169 20.7448C2.48537 21.0013 3.26015 22.0271 4.03493 22.9246C5.20066 24.4633 6.36497 25.8724 9.85647 25.1044V24.5915C9.72852 23.5657 9.98583 22.54 10.5033 21.6424C6.62228 20.873 2.09584 18.6932 2.09584 11.3859C2.09584 9.33432 2.74268 7.53918 4.03636 6.0005C3.64825 4.20677 3.77762 2.28342 4.42446 0.744733L5.07129 0.231838C5.33003 0.103614 7.14117 -0.281057 10.89 2.02556C13.9896 1.25632 17.2328 1.25632 20.3324 2.02556C23.9561 -0.41069 25.8966 -0.0274277 26.1553 0.102205L26.8022 0.6151C27.449 2.41023 27.5784 4.20536 27.0609 5.99909V5.99909Z"/>
</svg>
