<svg width="83" height="30" viewBox="0 0 83 30" fill="none" xmlns="http://www.w3.org/2000/svg">
<path d="M42.7381 9.19452L46.6764 8.93995C46.7663 9.58387 46.931 10.0631 47.2006 10.4075C47.6348 10.9466 48.2338 11.2161 49.0275 11.2161C49.6115 11.2161 50.0757 11.0814 50.3902 10.7968C50.6897 10.5722 50.8694 10.2128 50.8694 9.83844C50.8694 9.47905 50.7047 9.13463 50.4201 8.91C50.1207 8.64046 49.4168 8.37091 48.3087 8.13131C46.4967 7.727 45.1939 7.1879 44.4302 6.49906C43.6665 5.85515 43.2322 4.91173 43.2622 3.90842C43.2622 3.21958 43.4718 2.53074 43.8612 1.9617C44.3104 1.31778 44.9244 0.808639 45.6582 0.524118C46.4518 0.179697 47.56 0 48.9526 0C50.6597 0 51.9625 0.314471 52.861 0.958387C53.7595 1.58733 54.2986 2.60561 54.4633 3.99827L50.5699 4.22289C50.4651 3.6239 50.2554 3.18963 49.911 2.90511C49.5666 2.62059 49.1173 2.48582 48.5333 2.48582C48.0541 2.48582 47.6947 2.59064 47.4551 2.78531C47.2305 2.96501 47.0808 3.23456 47.0957 3.53405C47.0957 3.75867 47.2155 3.96832 47.3952 4.10309C47.5899 4.28279 48.0541 4.44751 48.7879 4.59726C50.5998 4.98661 51.8877 5.37595 52.6813 5.78027C53.475 6.18459 54.044 6.67876 54.3885 7.26278C54.7479 7.86177 54.9276 8.55061 54.9126 9.25442C54.9126 10.093 54.673 10.9316 54.1938 11.6354C53.6996 12.3692 53.0108 12.9382 52.2021 13.2826C51.3486 13.657 50.2704 13.8517 48.9826 13.8517C46.7064 13.8517 45.134 13.4174 44.2505 12.5339C43.367 11.6504 42.8429 10.5423 42.7381 9.19452ZM0.943412 13.6271V0.239597H7.84679C9.11965 0.239597 10.108 0.34442 10.7819 0.569042C11.4407 0.778689 12.0248 1.21296 12.4141 1.79698C12.8484 2.44089 13.058 3.18963 13.043 3.96832C13.088 5.2861 12.4141 6.54399 11.261 7.20288C10.8118 7.45745 10.3176 7.63715 9.80849 7.72699C10.1829 7.83182 10.5572 8.01152 10.8867 8.22116C11.1412 8.43081 11.3509 8.67041 11.5456 8.92498C11.7702 9.17955 11.9649 9.46407 12.1296 9.76357L14.1362 13.642H9.43412L7.21785 9.52397C6.93333 8.99985 6.69373 8.65543 6.46911 8.49071C6.16962 8.28106 5.81022 8.17624 5.45083 8.17624H5.09143V13.6121H0.943412V13.6271ZM5.09143 5.66047H6.84348C7.21785 5.63052 7.57725 5.57062 7.93664 5.48078C8.20619 5.43585 8.44579 5.2861 8.61051 5.06148C9.01483 4.52239 8.95493 3.75867 8.46076 3.29446C8.19121 3.06983 7.6671 2.95004 6.91836 2.95004H5.09143V5.66047ZM0 25.0977L3.93837 24.8432C4.02822 25.4871 4.19294 25.9663 4.46249 26.3107C4.88178 26.8498 5.49575 27.1343 6.28942 27.1343C6.87343 27.1343 7.33765 26.9995 7.65212 26.715C7.95162 26.4754 8.13132 26.131 8.13132 25.7566C8.13132 25.3972 7.96659 25.0528 7.68207 24.8282C7.38258 24.5587 6.67876 24.2891 5.55565 24.0495C3.7437 23.6452 2.44089 23.1061 1.67718 22.4173C0.913463 21.7733 0.479194 20.8299 0.509143 19.8266C0.509143 19.1378 0.71879 18.4489 1.10814 17.8799C1.55738 17.236 2.17135 16.7268 2.90511 16.4423C3.69878 16.0979 4.80691 15.9182 6.19957 15.9182C7.90669 15.9182 9.2095 16.2327 10.108 16.8766C11.0065 17.5205 11.5306 18.5238 11.6953 19.9165L7.80187 20.1411C7.69705 19.5421 7.4874 19.1078 7.14298 18.8233C6.81353 18.5388 6.34931 18.404 5.7653 18.419C5.2861 18.419 4.92671 18.5238 4.68711 18.7335C4.44751 18.9132 4.31274 19.1827 4.32772 19.4822C4.32772 19.7068 4.44752 19.9165 4.62721 20.0512C4.82188 20.2309 5.2861 20.3957 6.01987 20.5454C7.83182 20.9348 9.11965 21.3241 9.91332 21.7284C10.707 22.1327 11.276 22.6269 11.6204 23.2109C11.9798 23.8099 12.1595 24.4988 12.1595 25.1876C12.1595 26.0262 11.905 26.8498 11.4407 27.5536C10.9466 28.2874 10.2577 28.8564 9.4491 29.2008C8.59553 29.5752 7.51735 29.7699 6.22952 29.7699C3.95335 29.7699 2.38099 29.3356 1.49748 28.4521C0.613967 27.5536 0.119798 26.4455 0 25.0977Z" fill="white"/>
<path d="M19.9163 24.0493L23.5403 25.1424C23.3456 26.0559 22.9413 26.9244 22.3872 27.6882C21.878 28.362 21.2042 28.8861 20.4405 29.2306C19.6618 29.575 18.6734 29.7547 17.4755 29.7547C16.0229 29.7547 14.8249 29.545 13.9115 29.1257C12.983 28.7064 12.1894 27.9577 11.5155 26.8945C10.8417 25.8313 10.5122 24.4686 10.5122 22.8064C10.5122 20.5901 11.0962 18.883 12.2792 17.7C13.4622 16.517 15.1244 15.918 17.2808 15.918C18.9729 15.918 20.2907 16.2624 21.2641 16.9363C22.2225 17.6251 22.9413 18.6733 23.4205 20.081L19.7666 20.8896C19.6768 20.5751 19.542 20.2607 19.3623 19.9911C19.1377 19.6766 18.8531 19.437 18.5087 19.2573C18.1643 19.0777 17.775 19.0028 17.3856 19.0028C16.4422 19.0028 15.7234 19.3771 15.2292 20.1409C14.8549 20.6949 14.6602 21.5784 14.6602 22.7764C14.6602 24.2589 14.8848 25.2772 15.3341 25.8313C15.7833 26.3854 16.4122 26.6549 17.2359 26.6549C18.0295 26.6549 18.6285 26.4303 19.0328 25.996C19.4372 25.5318 19.7367 24.8879 19.9163 24.0493ZM28.3771 16.1426H32.5102V20.8297H37.0325V16.1426H41.1955V29.5301H37.0325V24.1092H32.5102V29.5301H28.3771V16.1426Z" fill="white"/>
<path d="M40.6267 22.8364C40.6267 20.6501 41.2407 18.943 42.4536 17.73C43.6666 16.517 45.3737 15.9031 47.5451 15.9031C49.7763 15.9031 51.4834 16.5021 52.6964 17.7001C53.9094 18.898 54.5083 20.5752 54.5083 22.7316C54.5083 24.3039 54.2388 25.5768 53.7147 26.5801C53.2055 27.5684 52.4119 28.3771 51.4385 28.9162C50.4352 29.4702 49.1923 29.7548 47.7098 29.7548C46.1973 29.7548 44.9544 29.5152 43.9661 29.036C42.9478 28.5268 42.1092 27.7332 41.5551 26.7598C40.9412 25.7116 40.6267 24.4088 40.6267 22.8364ZM44.7598 22.8514C44.7598 24.1991 45.0143 25.1725 45.5085 25.7715C46.0027 26.3555 46.6915 26.655 47.56 26.655C48.4436 26.655 49.1324 26.3705 49.6266 25.7864C50.1207 25.2024 50.3603 24.1692 50.3603 22.6717C50.3603 21.4138 50.1058 20.4854 49.5966 19.9163C49.0875 19.3323 48.3986 19.0478 47.5301 19.0478C46.7664 19.0178 46.0326 19.3473 45.5235 19.9313C45.0143 20.5153 44.7598 21.4887 44.7598 22.8514ZM58.7462 22.8364C58.7462 20.6501 59.3602 18.943 60.5731 17.73C61.7861 16.517 63.4932 15.9031 65.6646 15.9031C67.8958 15.9031 69.6179 16.5021 70.8159 17.7001C72.0139 18.898 72.6278 20.5752 72.6278 22.7316C72.6278 24.3039 72.3583 25.5768 71.8342 26.5801C71.325 27.5684 70.5314 28.3771 69.558 28.9162C68.5547 29.4702 67.3118 29.7548 65.8293 29.7548C64.3168 29.7548 63.0739 29.5152 62.0856 29.036C61.0673 28.5268 60.2287 27.7332 59.6747 26.7598C59.0607 25.7116 58.7462 24.4088 58.7462 22.8364ZM62.8793 22.8514C62.8793 24.1991 63.1338 25.1725 63.628 25.7715C64.1222 26.3555 64.811 26.655 65.6795 26.655C66.5631 26.655 67.2519 26.3705 67.7461 25.7864C68.2402 25.2024 68.4798 24.1692 68.4798 22.6717C68.4798 21.4138 68.2253 20.4854 67.7161 19.9163C67.207 19.3323 66.5181 19.0478 65.6496 19.0478C64.8859 19.0178 64.1371 19.3473 63.643 19.9313C63.1338 20.5153 62.8793 21.4887 62.8793 22.8514Z" fill="white"/>
<path d="M72.1935 16.1428H76.3265V26.2358H82.7807V29.5303H72.1785V16.1428H72.1935Z" fill="white"/>
</svg>
