<svg width="33" height="30" viewBox="0 0 33 30" fill="none" xmlns="http://www.w3.org/2000/svg">
<path d="M32.3397 0.464245C32.0781 0.236504 31.7597 0.085268 31.4189 0.0269388C31.0781 -0.0313904 30.728 0.00541335 30.4065 0.133359L1.20441 11.6941C0.822669 11.8452 0.499752 12.1169 0.283981 12.4684C0.0682091 12.8198 -0.0288141 13.2323 0.00742965 13.644C0.0436734 14.0557 0.211235 14.4444 0.485041 14.7522C0.758846 15.0599 1.12417 15.27 1.52635 15.351L9.45266 16.9486V26.8078C9.4487 27.1871 9.55847 27.5587 9.7676 27.8741C9.97674 28.1895 10.2755 28.4339 10.6248 28.5754C10.8587 28.6741 11.1098 28.7253 11.3634 28.726C11.6113 28.7252 11.8566 28.6748 12.085 28.5777C12.3134 28.4807 12.5204 28.3389 12.694 28.1606L17.2187 23.601L23.8949 29.5213C24.2389 29.8292 24.6829 29.9995 25.143 30C25.343 29.9998 25.5418 29.968 25.7321 29.9058C26.0459 29.8055 26.3281 29.6241 26.5505 29.3796C26.773 29.1351 26.928 28.836 27 28.5123L32.9515 2.34165C33.0292 2.00225 33.0133 1.64789 32.9054 1.31696C32.7976 0.986032 32.602 0.691147 32.3397 0.464245V0.464245ZM1.2683 13.5312C1.25256 13.3934 1.28339 13.2543 1.3558 13.1364C1.42821 13.0185 1.53798 12.9286 1.66736 12.8813L28.4356 2.284L9.93878 15.7458L1.77459 14.1003C1.63897 14.0767 1.51522 14.0077 1.42335 13.9044C1.33148 13.8011 1.27686 13.6696 1.2683 13.5312V13.5312ZM11.7989 27.2587C11.7104 27.3479 11.5976 27.4086 11.4748 27.4333C11.3521 27.4579 11.2248 27.4452 11.1092 27.397C10.9935 27.3487 10.8947 27.267 10.8251 27.1621C10.7556 27.0572 10.7185 26.9339 10.7185 26.8078V17.8366L16.2666 22.7566L11.7989 27.2587ZM31.7177 2.0567L25.7661 28.2274C25.7416 28.3351 25.6898 28.4345 25.6157 28.5159C25.5416 28.5973 25.4478 28.658 25.3434 28.6919C25.2391 28.7258 25.1278 28.7318 25.0205 28.7093C24.9131 28.6869 24.8134 28.6367 24.7311 28.5637L11.0991 16.4749L31.6154 1.5434C31.6694 1.61585 31.7066 1.69955 31.7243 1.78837C31.742 1.87719 31.7397 1.96887 31.7177 2.0567V2.0567Z" fill="white"/>
</svg>
