<svg width="30" height="22" viewBox="0 0 30 22" fill="none" xmlns="http://www.w3.org/2000/svg">
<path d="M23.2653 0.214355H6.73469C3.02118 0.214355 0 3.23554 0 6.94905V14.9082C0 18.6217 3.02118 21.6429 6.73469 21.6429H23.2653C26.9788 21.6429 30 18.6217 30 14.9082V6.94905C30 3.23554 26.9788 0.214355 23.2653 0.214355ZM28.7755 14.9082C28.7755 17.9466 26.3036 20.4184 23.2653 20.4184H6.73469C3.69637 20.4184 1.22449 17.9466 1.22449 14.9082V6.94905C1.22449 3.91072 3.69637 1.43885 6.73469 1.43885H23.2653C26.3036 1.43885 28.7755 3.91072 28.7755 6.94905V14.9082Z" fill="white"/>
<path d="M19.8273 10.3635L12.4804 7.30223C12.2915 7.2235 12.0756 7.24438 11.9053 7.35801C11.735 7.47152 11.6327 7.66272 11.6327 7.8674V13.9898C11.6327 14.1946 11.735 14.3857 11.9053 14.4992C12.0074 14.5673 12.1258 14.6021 12.245 14.6021C12.3247 14.6021 12.4047 14.5865 12.4804 14.555L19.8273 11.4938C20.0555 11.3987 20.2041 11.1758 20.2041 10.9286C20.2041 10.6815 20.0555 10.4585 19.8273 10.3635ZM12.8572 13.0715V8.78576L18 10.9286L12.8572 13.0715Z" fill="white"/>
</svg>
